<svg preserveAspectRatio="none" width="100%" height="100%" overflow="visible" style="display: block;" viewBox="0 0 12 12" fill="none" xmlns="http://www.w3.org/2000/svg">
<path id="Vector" fill-rule="evenodd" clip-rule="evenodd" d="M6 12C9.31371 12 12 9.31371 12 6C12 2.68629 9.31371 0 6 0C2.68629 0 0 2.68629 0 6C0 9.31371 2.68629 12 6 12ZM7.07121 9.08024L7.16702 8.68857C7.11743 8.71186 7.03747 8.73848 6.92783 8.76877C6.81789 8.79907 6.71894 8.8145 6.63198 8.8145C6.44675 8.8145 6.31634 8.78414 6.24063 8.72311C6.16546 8.66208 6.12798 8.54728 6.12798 8.37914C6.12798 8.31252 6.13928 8.21321 6.16294 8.08323C6.18587 7.95238 6.21223 7.83611 6.24155 7.7344L6.59922 6.46808C6.63425 6.35187 6.65828 6.2241 6.67119 6.08466C6.6844 5.94552 6.69055 5.84817 6.69055 5.79292C6.69055 5.52589 6.59695 5.3092 6.40969 5.14204C6.22243 4.975 5.95577 4.89148 5.6102 4.89148C5.41791 4.89148 5.21461 4.92565 4.99945 4.99393C4.78429 5.06202 4.55936 5.14406 4.32404 5.23987L4.22798 5.63184C4.29811 5.60591 4.38163 5.57801 4.47934 5.54912C4.57663 5.52036 4.67207 5.50549 4.76493 5.50549C4.95452 5.50549 5.08223 5.53782 5.14916 5.60148C5.21608 5.66534 5.2497 5.77891 5.2497 5.94128C5.2497 6.03107 5.23907 6.13081 5.217 6.23922C5.19525 6.34831 5.16809 6.46366 5.13613 6.58541L4.77691 7.85682C4.74496 7.99043 4.7216 8.10996 4.70691 8.21609C4.69235 8.32211 4.68534 8.42615 4.68534 8.52731C4.68534 8.78862 4.78189 9.00403 4.97493 9.17402C5.16796 9.34333 5.43862 9.42857 5.78658 9.42857C6.01317 9.42857 6.21205 9.39895 6.3832 9.3394C6.55418 9.28003 6.78378 9.19368 7.07121 9.08024ZM7.00748 3.9362C7.17458 3.78126 7.25773 3.59284 7.25773 3.37221C7.25773 3.15207 7.1747 2.96328 7.00748 2.80638C6.84081 2.64991 6.63991 2.57143 6.40502 2.57143C6.1694 2.57143 5.9677 2.64972 5.79943 2.80638C5.63116 2.96328 5.54684 3.15201 5.54684 3.37221C5.54684 3.59284 5.63116 3.7812 5.79943 3.9362C5.968 4.09168 6.16934 4.16948 6.40502 4.16948C6.63997 4.16948 6.84081 4.09168 7.00748 3.9362Z" fill="var(--fill-0, #D1D1D1)"/>
</svg>
