<svg preserveAspectRatio="none" width="100%" height="100%" overflow="visible" style="display: block;" viewBox="0 0 20 20" fill="none" xmlns="http://www.w3.org/2000/svg">
<g id="plus">
<path id="Newtab" d="M10 15.8333C10.3465 15.8333 10.6364 15.5631 10.6364 15.2306V10.6235H15.204C15.5434 10.6235 15.8333 10.3395 15.8333 10C15.8333 9.66053 15.5434 9.38341 15.204 9.38341H10.6364V4.7694C10.6364 4.43686 10.3465 4.16667 10 4.16667C9.65354 4.16667 9.37071 4.43686 9.37071 4.7694V9.38341H4.79596C4.45657 9.38341 4.16667 9.66053 4.16667 10C4.16667 10.3395 4.45657 10.6235 4.79596 10.6235H9.37071V15.2306C9.37071 15.5631 9.65354 15.8333 10 15.8333Z" fill="var(--fill-0, #A4A4A4)"/>
</g>
</svg>
