<svg preserveAspectRatio="none" width="100%" height="100%" overflow="visible" style="display: block;" viewBox="0 0 23.1716 23.1716" fill="none" xmlns="http://www.w3.org/2000/svg">
<path id="BG" d="M15.5147 3.10051C15.2495 3.10051 14.9951 2.99515 14.8076 2.80761L12.2929 0.292893C11.9024 -0.0976308 11.2692 -0.0976313 10.8787 0.292893L8.36396 2.80761C8.17642 2.99515 7.92207 3.10051 7.65685 3.10051H4.10051C3.54822 3.10051 3.10051 3.54822 3.10051 4.1005V7.65685C3.10051 7.92207 2.99515 8.17642 2.80761 8.36396L0.292893 10.8787C-0.0976309 11.2692 -0.0976313 11.9024 0.292893 12.2929L2.80761 14.8076C2.99515 14.9951 3.10051 15.2495 3.10051 15.5147V19.0711C3.10051 19.6234 3.54822 20.0711 4.1005 20.0711H7.65685C7.92207 20.0711 8.17642 20.1764 8.36396 20.364L10.8787 22.8787C11.2692 23.2692 11.9024 23.2692 12.2929 22.8787L14.8076 20.364C14.9951 20.1764 15.2495 20.0711 15.5147 20.0711H19.0711C19.6234 20.0711 20.0711 19.6234 20.0711 19.0711V15.5147C20.0711 15.2495 20.1764 14.9951 20.364 14.8076L22.8787 12.2929C23.2692 11.9024 23.2692 11.2692 22.8787 10.8787L20.364 8.36396C20.1764 8.17642 20.0711 7.92207 20.0711 7.65685V4.10051C20.0711 3.54822 19.6234 3.10051 19.0711 3.10051H15.5147Z" fill="var(--fill-0, #47C2FF)"/>
</svg>
