<svg preserveAspectRatio="none" width="100%" height="100%" overflow="visible" style="display: block;" viewBox="0 0 20 20" fill="none" xmlns="http://www.w3.org/2000/svg">
<g id="shield-icon">
<path id="Sheild icon" d="M4.58333 11.1287C4.58333 13.538 5.86091 14.4224 9.56328 16.5347C9.73275 16.6271 9.89571 16.6667 10 16.6667C10.1043 16.6667 10.2738 16.6271 10.4367 16.5347C14.1456 14.429 15.4167 13.538 15.4167 11.1287V6.07921C15.4167 5.38614 15.1233 5.16832 14.5693 4.93069C13.8001 4.60726 11.3167 3.70297 10.5475 3.43234C10.3715 3.37294 10.1825 3.33333 10 3.33333C9.81749 3.33333 9.62846 3.38614 9.45899 3.43234C8.68983 3.65677 6.19986 4.61386 5.43071 4.93069C4.88317 5.16172 4.58333 5.38614 4.58333 6.07921V11.1287ZM10.1369 15.4455V4.41584C10.1695 4.42244 10.2086 4.43564 10.2607 4.45545C11.245 4.85149 13.1548 5.55115 14.1652 5.90099C14.3412 5.967 14.3803 6.05941 14.3803 6.28383V10.8845C14.3803 12.9241 13.4156 13.4587 10.4041 15.3135C10.3064 15.3795 10.2151 15.4257 10.1369 15.4455Z" fill="var(--fill-0, #A4A4A4)"/>
</g>
</svg>
