<svg preserveAspectRatio="none" width="100%" height="100%" overflow="visible" style="display: block;" viewBox="0 0 7.24112 7.24112" fill="none" xmlns="http://www.w3.org/2000/svg">
<path id="BG" d="M4.84835 0.968908C4.76547 0.968908 4.68598 0.935984 4.62738 0.877379L3.84153 0.0915292C3.71949 -0.0305096 3.52163 -0.0305098 3.39959 0.0915291L2.61374 0.877379C2.55513 0.935984 2.47565 0.968908 2.39277 0.968908H1.28141C1.10882 0.968908 0.968908 1.10882 0.968908 1.28141V2.39277C0.968908 2.47565 0.935984 2.55513 0.877379 2.61374L0.0915292 3.39959C-0.0305096 3.52163 -0.0305098 3.71949 0.0915291 3.84153L0.877379 4.62738C0.935984 4.68598 0.968908 4.76547 0.968908 4.84835V5.95971C0.968908 6.1323 1.10882 6.27221 1.28141 6.27221H2.39277C2.47565 6.27221 2.55513 6.30513 2.61374 6.36374L3.39959 7.14959C3.52163 7.27163 3.71949 7.27163 3.84153 7.14959L4.62738 6.36374C4.68598 6.30513 4.76547 6.27221 4.84835 6.27221H5.95971C6.1323 6.27221 6.27221 6.1323 6.27221 5.95971V4.84835C6.27221 4.76547 6.30513 4.68598 6.36374 4.62738L7.14959 3.84153C7.27163 3.71949 7.27163 3.52163 7.14959 3.39959L6.36374 2.61374C6.30513 2.55513 6.27221 2.47565 6.27221 2.39277V1.28141C6.27221 1.10882 6.1323 0.968908 5.95971 0.968908H4.84835Z" fill="var(--fill-0, #47C2FF)"/>
</svg>
