<svg preserveAspectRatio="none" width="100%" height="100%" overflow="visible" style="display: block;" viewBox="0 0 15.0998 15.1205" fill="none" xmlns="http://www.w3.org/2000/svg">
<g id="open" filter="url(#filter0_d_202514_1306252)">
<path id="Shape" d="M4.83248 7.06408C4.75648 6.78288 4.68048 6.41808 4.52088 5.88608C4.36128 5.35408 4.26248 5.23248 4.16368 4.95128C4.06488 4.67008 3.93568 4.40408 3.78368 4.05448C3.64445 3.69732 3.52769 3.33181 3.43408 2.96008C3.37082 2.64681 3.44865 2.32157 3.64688 2.07088C3.91961 1.80474 4.31316 1.70346 4.68048 1.80488C4.96826 1.93073 5.21177 2.13983 5.37968 2.40528C5.60391 2.76375 5.78744 3.14611 5.92688 3.54528C6.141 4.0922 6.29641 4.66032 6.39048 5.24008L6.45888 5.58208C6.45888 5.58208 6.45888 4.73088 6.45888 4.70048C6.45888 3.94048 6.41328 3.31728 6.45888 2.46608C6.45888 2.36728 6.50448 2.01768 6.51968 1.91888C6.53933 1.59205 6.73409 1.30136 7.02888 1.15888C7.3673 1.00704 7.75446 1.00704 8.09288 1.15888C8.39582 1.29449 8.59802 1.58753 8.61728 1.91888C8.61728 2.00248 8.68568 2.67888 8.68568 2.76248C8.68568 3.52248 8.68568 4.00888 8.68568 4.41168C8.68568 4.58648 8.68568 5.65048 8.68568 5.52888C8.70358 4.52603 8.78991 3.52557 8.94408 2.53448C9.03414 2.22397 9.25263 1.96677 9.54448 1.82768C9.90543 1.68551 10.3155 1.75581 10.6085 2.01008C10.8275 2.25046 10.9564 2.55932 10.9733 2.88408C10.9733 3.19568 10.9733 3.56808 10.9733 3.83408C10.9733 4.49528 10.9733 4.83728 10.9733 5.44528C10.9733 5.44528 10.9733 5.67328 10.9733 5.58208C11.0417 5.36928 11.1177 5.17168 11.1785 5.01968C11.2393 4.86768 11.3609 4.55608 11.4521 4.36608C11.5449 4.18494 11.649 4.0098 11.7637 3.84168C11.8829 3.64844 12.0616 3.49909 12.2729 3.41608C12.4632 3.3425 12.6752 3.34856 12.861 3.43289C13.0468 3.51723 13.1909 3.67276 13.2609 3.86448C13.3061 4.14131 13.3061 4.42365 13.2609 4.70048C13.2102 5.12565 13.1212 5.54536 12.9949 5.95448C12.8961 6.29648 12.7897 6.88928 12.7365 7.17048C12.6833 7.45168 12.5617 8.21928 12.4629 8.55368C12.3166 8.9526 12.1144 9.32875 11.8625 9.67088C11.4937 10.0815 11.1889 10.5452 10.9581 11.0465C10.9013 11.2957 10.8758 11.551 10.8821 11.8065C10.8809 12.0426 10.9115 12.2778 10.9733 12.5057C10.6626 12.5388 10.3492 12.5388 10.0385 12.5057C9.74208 12.4601 9.37728 11.8673 9.27848 11.6849C9.22959 11.5869 9.12954 11.5251 9.02008 11.5251C8.91062 11.5251 8.81056 11.5869 8.76168 11.6849C8.58688 11.9737 8.22208 12.4981 7.96368 12.5285C7.45448 12.5893 6.40568 12.5285 5.57728 12.5285C5.57728 12.5285 5.72168 11.7685 5.40248 11.4949C5.08328 11.2213 4.77168 10.9021 4.53608 10.6893L3.90528 9.99008C3.69248 9.71648 3.42648 9.16168 2.96288 8.47008C2.69688 8.09008 2.20288 7.64168 1.99008 7.26928C1.81142 6.96704 1.75952 6.60643 1.84568 6.26608C1.97473 5.81415 2.42379 5.53227 2.88688 5.61248C3.23914 5.63569 3.57234 5.78079 3.82928 6.02288C4.03274 6.19892 4.22324 6.38942 4.39928 6.59288C4.52088 6.73728 4.55128 6.80568 4.68808 6.98048C4.82488 7.15528 4.91608 7.33008 4.84768 7.07168" fill="var(--fill-0, white)"/>
<path id="Shape_2" d="M4.83248 7.06408C4.75648 6.78288 4.68048 6.41808 4.52088 5.88608C4.36128 5.35408 4.26248 5.23248 4.16368 4.95128C4.06488 4.67008 3.93568 4.40408 3.78368 4.05448C3.64445 3.69732 3.52769 3.33181 3.43408 2.96008C3.37082 2.64681 3.44865 2.32157 3.64688 2.07088C3.91961 1.80474 4.31316 1.70346 4.68048 1.80488C4.96826 1.93073 5.21177 2.13983 5.37968 2.40528C5.60391 2.76375 5.78744 3.14611 5.92688 3.54528C6.141 4.0922 6.29641 4.66032 6.39048 5.24008L6.45888 5.58208C6.45888 5.58208 6.45888 4.73088 6.45888 4.70048C6.45888 3.94048 6.41328 3.31728 6.45888 2.46608C6.45888 2.36728 6.50448 2.01768 6.51968 1.91888C6.53933 1.59205 6.73409 1.30136 7.02888 1.15888C7.3673 1.00704 7.75446 1.00704 8.09288 1.15888C8.39582 1.29449 8.59802 1.58753 8.61728 1.91888C8.61728 2.00248 8.68568 2.67888 8.68568 2.76248C8.68568 3.52248 8.68568 4.00888 8.68568 4.41168C8.68568 4.58648 8.68568 5.65048 8.68568 5.52888C8.70358 4.52603 8.78991 3.52557 8.94408 2.53448C9.03414 2.22397 9.25263 1.96677 9.54448 1.82768C9.90543 1.68551 10.3155 1.75581 10.6085 2.01008C10.8275 2.25046 10.9564 2.55932 10.9733 2.88408C10.9733 3.19568 10.9733 3.56808 10.9733 3.83408C10.9733 4.49528 10.9733 4.83728 10.9733 5.44528C10.9733 5.44528 10.9733 5.67328 10.9733 5.58208C11.0417 5.36928 11.1177 5.17168 11.1785 5.01968C11.2393 4.86768 11.3609 4.55608 11.4521 4.36608C11.5449 4.18494 11.649 4.0098 11.7637 3.84168C11.8829 3.64844 12.0616 3.49909 12.2729 3.41608C12.4632 3.3425 12.6752 3.34856 12.861 3.43289C13.0468 3.51723 13.1909 3.67276 13.2609 3.86448C13.3061 4.14131 13.3061 4.42365 13.2609 4.70048C13.2102 5.12565 13.1212 5.54536 12.9949 5.95448C12.8961 6.29648 12.7897 6.88928 12.7365 7.17048C12.6833 7.45168 12.5617 8.21928 12.4629 8.55368C12.3166 8.9526 12.1144 9.32875 11.8625 9.67088C11.4937 10.0815 11.1889 10.5452 10.9581 11.0465C10.9013 11.2957 10.8758 11.551 10.8821 11.8065C10.8809 12.0426 10.9115 12.2778 10.9733 12.5057C10.6626 12.5388 10.3492 12.5388 10.0385 12.5057C9.74208 12.4601 9.37728 11.8673 9.27848 11.6849C9.22959 11.5869 9.12954 11.5251 9.02008 11.5251C8.91062 11.5251 8.81056 11.5869 8.76168 11.6849C8.58688 11.9737 8.22208 12.4981 7.96368 12.5285C7.45448 12.5893 6.40568 12.5285 5.57728 12.5285C5.57728 12.5285 5.72168 11.7685 5.40248 11.4949C5.08328 11.2213 4.77168 10.9021 4.53608 10.6893L3.90528 9.99008C3.69248 9.71648 3.42648 9.16168 2.96288 8.47008C2.69688 8.09008 2.20288 7.64168 1.99008 7.26928C1.81142 6.96704 1.75952 6.60643 1.84568 6.26608C1.97473 5.81415 2.42379 5.53227 2.88688 5.61248C3.23914 5.63569 3.57234 5.78079 3.82928 6.02288C4.03274 6.19892 4.22324 6.38942 4.39928 6.59288C4.52088 6.73728 4.55128 6.80568 4.68808 6.98048C4.82488 7.15528 4.91608 7.33008 4.84768 7.07168" stroke="var(--stroke-0, #171717)" stroke-width="0.57" stroke-linecap="round" stroke-linejoin="round"/>
<path id="Shape_3" d="M10.4337 10.2264V7.603C10.4337 7.44597 10.3061 7.31868 10.1487 7.31868C9.99128 7.31868 9.86368 7.44597 9.86368 7.603V10.2264C9.86368 10.3834 9.99128 10.5107 10.1487 10.5107C10.3061 10.5107 10.4337 10.3834 10.4337 10.2264Z" fill="var(--fill-0, #171717)"/>
<path id="Shape_4" d="M8.92128 10.2262L8.91368 7.60151C8.91322 7.44485 8.78526 7.31823 8.62786 7.31868C8.47046 7.31913 8.34323 7.44649 8.34368 7.60314L8.35128 10.2278C8.35173 10.3845 8.4797 10.5111 8.6371 10.5107C8.7945 10.5102 8.92173 10.3829 8.92128 10.2262Z" fill="var(--fill-0, #171717)"/>
<path id="Shape_5" d="M6.82748 7.60361L6.84268 10.2215C6.8436 10.38 6.97195 10.5078 7.12935 10.5069C7.28674 10.5059 7.41359 10.3767 7.41267 10.2181L7.39747 7.60025C7.39655 7.44172 7.26821 7.31395 7.11081 7.31488C6.95341 7.31581 6.82656 7.44507 6.82748 7.60361Z" fill="var(--fill-0, #171717)"/>
</g>
<defs>
<filter id="filter0_d_202514_1306252" x="0" y="-2.98023e-08" width="15.0998" height="15.1205" filterUnits="userSpaceOnUse" color-interpolation-filters="sRGB">
<feFlood flood-opacity="0" result="BackgroundImageFix"/>
<feColorMatrix in="SourceAlpha" type="matrix" values="0 0 0 0 0 0 0 0 0 0 0 0 0 0 0 0 0 0 127 0" result="hardAlpha"/>
<feOffset dy="0.76"/>
<feGaussianBlur stdDeviation="0.76"/>
<feColorMatrix type="matrix" values="0 0 0 0 0.211765 0 0 0 0 0.219608 0 0 0 0 0.227451 0 0 0 0.48 0"/>
<feBlend mode="normal" in2="BackgroundImageFix" result="effect1_dropShadow_202514_1306252"/>
<feBlend mode="normal" in="SourceGraphic" in2="effect1_dropShadow_202514_1306252" result="shape"/>
</filter>
</defs>
</svg>
