<svg preserveAspectRatio="none" width="100%" height="100%" overflow="visible" style="display: block;" viewBox="0 0 23.1 17.7352" fill="none" xmlns="http://www.w3.org/2000/svg">
<path id="Vector" d="M5.13345 13.0676H1.05C0.771523 13.0676 0.504451 12.957 0.307538 12.7601C0.110625 12.5631 0 12.2961 0 12.0176V5.7176C0 5.43912 0.110625 5.17205 0.307538 4.97514C0.504451 4.77823 0.771523 4.6676 1.05 4.6676H5.13345L10.6921 0.119001C10.7691 0.055945 10.8623 0.0160339 10.961 0.00391341C11.0597 -0.00820703 11.1599 0.0079619 11.2497 0.0505379C11.3396 0.0931139 11.4156 0.160345 11.4687 0.244405C11.5219 0.328464 11.5501 0.425894 11.55 0.52535V17.2099C11.5501 17.3093 11.5219 17.4067 11.4687 17.4908C11.4156 17.5749 11.3396 17.6421 11.2497 17.6847C11.1599 17.7272 11.0597 17.7434 10.961 17.7313C10.8623 17.7192 10.7691 17.6793 10.6921 17.6162L5.1345 13.0676H5.13345ZM19.3263 17.4083L17.8395 15.9215C18.8349 15.0358 19.6312 13.9493 20.176 12.7334C20.7207 11.5175 21.0016 10.1999 21 8.8676C21.0013 7.467 20.6906 6.08368 20.0905 4.81814C19.4905 3.5526 18.616 2.4366 17.5308 1.5512L19.0218 0.0602005C20.3012 1.14332 21.3289 2.49251 22.0333 4.01366C22.7376 5.5348 23.1017 7.19129 23.1 8.8676C23.1 12.2518 21.6447 15.2957 19.3263 17.4083ZM15.6061 13.6882L14.113 12.1951C14.6228 11.8031 15.0356 11.2991 15.3194 10.7221C15.6032 10.1452 15.7506 9.51062 15.75 8.8676C15.75 7.3661 14.9625 6.04835 13.776 5.306L15.2869 3.79505C16.0823 4.3801 16.7287 5.14414 17.174 6.02537C17.6193 6.9066 17.8508 7.88027 17.85 8.8676C17.85 10.8017 16.9785 12.5321 15.6061 13.6882Z" fill="var(--fill-0, white)" fill-opacity="0.56"/>
</svg>
