<svg preserveAspectRatio="none" width="100%" height="100%" overflow="visible" style="display: block;" viewBox="0 0 21 18.9" fill="none" xmlns="http://www.w3.org/2000/svg">
<path id="Vector" d="M19.95 0C20.5296 0 21 0.4704 21 1.05V17.85C21 18.4296 20.5296 18.9 19.95 18.9H1.05C0.4704 18.9 0 18.4296 0 17.85V1.05C0 0.4704 0.4704 0 1.05 0H19.95ZM7.35 5.25C5.0316 5.25 3.15 7.1316 3.15 9.45C3.15 11.7684 5.0316 13.65 7.35 13.65C8.505 13.65 9.555 13.1775 10.3194 12.4194L8.8347 10.9347C8.45565 11.3148 7.93065 11.55 7.35 11.55C6.18975 11.55 5.25 10.6103 5.25 9.45C5.25 8.28975 6.18975 7.35 7.35 7.35C7.9275 7.35 8.4504 7.581 8.83575 7.96635L10.3205 6.48165C9.56025 5.7204 8.51025 5.25 7.35 5.25ZM14.7 5.25C12.3816 5.25 10.5 7.1316 10.5 9.45C10.5 11.7684 12.3816 13.65 14.7 13.65C15.8592 13.65 16.9092 13.1796 17.6694 12.4194L16.1847 10.9347C15.8046 11.3148 15.2796 11.55 14.7 11.55C13.5397 11.55 12.6 10.6103 12.6 9.45C12.6 8.28975 13.5397 7.35 14.7 7.35C15.2806 7.35 15.8057 7.5852 16.1858 7.96635L17.6704 6.48165C16.9102 5.7204 15.8602 5.25 14.7 5.25Z" fill="var(--fill-0, white)"/>
</svg>
