<svg preserveAspectRatio="none" width="100%" height="100%" overflow="visible" style="display: block;" viewBox="0 0 26.4909 26.5272" fill="none" xmlns="http://www.w3.org/2000/svg">
<g id="open" filter="url(#filter0_d_202514_1306219)">
<path id="Shape" d="M8.47804 12.3931C8.3447 11.8998 8.21137 11.2598 7.93137 10.3265C7.65137 9.39312 7.47804 9.17979 7.3047 8.68645C7.13137 8.19312 6.9047 7.72645 6.63804 7.11312C6.39377 6.48653 6.18893 5.84528 6.0247 5.19312C5.91372 4.64352 6.05027 4.07293 6.39804 3.63312C6.87651 3.16621 7.56694 2.98853 8.21137 3.16645C8.71624 3.38724 9.14346 3.7541 9.43804 4.21979C9.83142 4.84868 10.1534 5.51949 10.398 6.21979C10.7737 7.17929 11.0463 8.176 11.2114 9.19312L11.3314 9.79312C11.3314 9.79312 11.3314 8.29979 11.3314 8.24645C11.3314 6.91312 11.2514 5.81979 11.3314 4.32645C11.3314 4.15312 11.4114 3.53979 11.438 3.36645C11.4725 2.79307 11.8142 2.28309 12.3314 2.03312C12.9251 1.76674 13.6043 1.76674 14.198 2.03312C14.7295 2.27103 15.0842 2.78514 15.118 3.36645C15.118 3.51312 15.238 4.69979 15.238 4.84645C15.238 6.17979 15.238 7.03312 15.238 7.73979C15.238 8.04645 15.238 9.91312 15.238 9.69979C15.2694 7.9404 15.4209 6.18521 15.6914 4.44645C15.8494 3.90171 16.2327 3.45047 16.7447 3.20645C17.378 2.95704 18.0973 3.08037 18.6114 3.52645C18.9956 3.94817 19.2218 4.49004 19.2514 5.05979C19.2514 5.60645 19.2514 6.25979 19.2514 6.72645C19.2514 7.88645 19.2514 8.48645 19.2514 9.55312C19.2514 9.55312 19.2514 9.95312 19.2514 9.79312C19.3714 9.41979 19.5047 9.07312 19.6114 8.80645C19.718 8.53979 19.9314 7.99312 20.0914 7.65979C20.2542 7.342 20.4368 7.03473 20.638 6.73979C20.8471 6.40076 21.1606 6.13875 21.5314 5.99312C21.8653 5.86403 22.2371 5.87466 22.5632 6.02262C22.8892 6.17059 23.142 6.44345 23.2647 6.77979C23.3441 7.26545 23.3441 7.76079 23.2647 8.24645C23.1758 8.99236 23.0196 9.7287 22.798 10.4465C22.6247 11.0465 22.438 12.0865 22.3447 12.5798C22.2514 13.0731 22.038 14.4198 21.8647 15.0065C21.6081 15.7063 21.2534 16.3662 20.8114 16.9665C20.1645 17.6868 19.6296 18.5003 19.2247 19.3798C19.1251 19.817 19.0803 20.2649 19.0914 20.7131C19.0892 21.1273 19.143 21.54 19.2514 21.9398C18.7062 21.9979 18.1565 21.9979 17.6114 21.9398C17.0914 21.8598 16.4514 20.8198 16.278 20.4998C16.1923 20.328 16.0167 20.2194 15.8247 20.2194C15.6327 20.2194 15.4571 20.328 15.3714 20.4998C15.0647 21.0065 14.4247 21.9265 13.9714 21.9798C13.078 22.0865 11.238 21.9798 9.7847 21.9798C9.7847 21.9798 10.038 20.6465 9.47804 20.1665C8.91804 19.6865 8.37137 19.1265 7.95804 18.7531L6.85137 17.5265C6.47804 17.0465 6.01137 16.0731 5.19804 14.8598C4.73137 14.1931 3.8647 13.4065 3.49137 12.7531C3.17793 12.2229 3.08687 11.5902 3.23804 10.9931C3.46444 10.2003 4.25226 9.70573 5.0647 9.84645C5.6827 9.88718 6.26726 10.1417 6.71804 10.5665C7.07498 10.8753 7.40919 11.2095 7.71804 11.5665C7.93137 11.8198 7.9847 11.9398 8.2247 12.2465C8.4647 12.5531 8.6247 12.8598 8.5047 12.4065" fill="var(--fill-0, white)"/>
<path id="Shape_2" d="M8.47804 12.3931C8.3447 11.8998 8.21137 11.2598 7.93137 10.3265C7.65137 9.39312 7.47804 9.17979 7.3047 8.68645C7.13137 8.19312 6.9047 7.72645 6.63804 7.11312C6.39377 6.48653 6.18893 5.84528 6.0247 5.19312C5.91372 4.64352 6.05027 4.07293 6.39804 3.63312C6.87651 3.16621 7.56694 2.98853 8.21137 3.16645C8.71624 3.38724 9.14346 3.7541 9.43804 4.21979C9.83142 4.84868 10.1534 5.51949 10.398 6.21979C10.7737 7.17929 11.0463 8.176 11.2114 9.19312L11.3314 9.79312C11.3314 9.79312 11.3314 8.29979 11.3314 8.24645C11.3314 6.91312 11.2514 5.81979 11.3314 4.32645C11.3314 4.15312 11.4114 3.53979 11.438 3.36645C11.4725 2.79307 11.8142 2.28309 12.3314 2.03312C12.9251 1.76674 13.6043 1.76674 14.198 2.03312C14.7295 2.27103 15.0842 2.78514 15.118 3.36645C15.118 3.51312 15.238 4.69979 15.238 4.84645C15.238 6.17979 15.238 7.03312 15.238 7.73979C15.238 8.04645 15.238 9.91312 15.238 9.69979C15.2694 7.9404 15.4209 6.18521 15.6914 4.44645C15.8494 3.90171 16.2327 3.45047 16.7447 3.20645C17.378 2.95704 18.0973 3.08037 18.6114 3.52645C18.9956 3.94817 19.2218 4.49004 19.2514 5.05979C19.2514 5.60645 19.2514 6.25979 19.2514 6.72645C19.2514 7.88645 19.2514 8.48645 19.2514 9.55312C19.2514 9.55312 19.2514 9.95312 19.2514 9.79312C19.3714 9.41979 19.5047 9.07312 19.6114 8.80645C19.718 8.53979 19.9314 7.99312 20.0914 7.65979C20.2542 7.342 20.4368 7.03473 20.638 6.73979C20.8471 6.40076 21.1606 6.13875 21.5314 5.99312C21.8653 5.86403 22.2371 5.87466 22.5632 6.02262C22.8892 6.17059 23.142 6.44345 23.2647 6.77979C23.3441 7.26545 23.3441 7.76079 23.2647 8.24645C23.1758 8.99236 23.0196 9.7287 22.798 10.4465C22.6247 11.0465 22.438 12.0865 22.3447 12.5798C22.2514 13.0731 22.038 14.4198 21.8647 15.0065C21.6081 15.7063 21.2534 16.3662 20.8114 16.9665C20.1645 17.6868 19.6296 18.5003 19.2247 19.3798C19.1251 19.817 19.0803 20.2649 19.0914 20.7131C19.0892 21.1273 19.143 21.54 19.2514 21.9398C18.7062 21.9979 18.1565 21.9979 17.6114 21.9398C17.0914 21.8598 16.4514 20.8198 16.278 20.4998C16.1923 20.328 16.0167 20.2194 15.8247 20.2194C15.6327 20.2194 15.4571 20.328 15.3714 20.4998C15.0647 21.0065 14.4247 21.9265 13.9714 21.9798C13.078 22.0865 11.238 21.9798 9.7847 21.9798C9.7847 21.9798 10.038 20.6465 9.47804 20.1665C8.91804 19.6865 8.37137 19.1265 7.95804 18.7531L6.85137 17.5265C6.47804 17.0465 6.01137 16.0731 5.19804 14.8598C4.73137 14.1931 3.8647 13.4065 3.49137 12.7531C3.17793 12.2229 3.08687 11.5902 3.23804 10.9931C3.46444 10.2003 4.25226 9.70573 5.0647 9.84645C5.6827 9.88718 6.26726 10.1417 6.71804 10.5665C7.07498 10.8753 7.40919 11.2095 7.71804 11.5665C7.93137 11.8198 7.9847 11.9398 8.2247 12.2465C8.4647 12.5531 8.6247 12.8598 8.5047 12.4065" stroke="var(--stroke-0, #171717)" stroke-linecap="round" stroke-linejoin="round"/>
<path id="Shape_3" d="M18.3047 17.941V13.3386C18.3047 13.0631 18.0808 12.8398 17.8047 12.8398C17.5286 12.8398 17.3047 13.0631 17.3047 13.3386V17.941C17.3047 18.2165 17.5286 18.4398 17.8047 18.4398C18.0808 18.4398 18.3047 18.2165 18.3047 17.941Z" fill="var(--fill-0, #171717)"/>
<path id="Shape_4" d="M15.6514 17.9407L15.638 13.336C15.6372 13.0611 15.4127 12.839 15.1366 12.8398C14.8605 12.8406 14.6372 13.064 14.638 13.3389L14.6514 17.9436C14.6522 18.2184 14.8767 18.4406 15.1528 18.4398C15.429 18.439 15.6522 18.2156 15.6514 17.9407Z" fill="var(--fill-0, #171717)"/>
<path id="Shape_5" d="M11.978 13.3397L12.0047 17.9325C12.0063 18.2106 12.2315 18.4347 12.5076 18.4331C12.7838 18.4315 13.0063 18.2047 13.0047 17.9266L12.978 13.3338C12.9764 13.0556 12.7512 12.8315 12.4751 12.8331C12.199 12.8348 11.9764 13.0615 11.978 13.3397Z" fill="var(--fill-0, #171717)"/>
</g>
<defs>
<filter id="filter0_d_202514_1306219" x="0" y="0" width="26.4909" height="26.5272" filterUnits="userSpaceOnUse" color-interpolation-filters="sRGB">
<feFlood flood-opacity="0" result="BackgroundImageFix"/>
<feColorMatrix in="SourceAlpha" type="matrix" values="0 0 0 0 0 0 0 0 0 0 0 0 0 0 0 0 0 0 127 0" result="hardAlpha"/>
<feOffset dy="1.33333"/>
<feGaussianBlur stdDeviation="1.33333"/>
<feColorMatrix type="matrix" values="0 0 0 0 0.211765 0 0 0 0 0.219608 0 0 0 0 0.227451 0 0 0 0.48 0"/>
<feBlend mode="normal" in2="BackgroundImageFix" result="effect1_dropShadow_202514_1306219"/>
<feBlend mode="normal" in="SourceGraphic" in2="effect1_dropShadow_202514_1306219" result="shape"/>
</filter>
</defs>
</svg>
