<svg preserveAspectRatio="none" width="100%" height="100%" overflow="visible" style="display: block;" viewBox="0 0 11.5858 11.5858" fill="none" xmlns="http://www.w3.org/2000/svg">
<path id="BG" d="M7.75736 1.55025C7.62475 1.55025 7.49757 1.49757 7.40381 1.40381L6.14645 0.146447C5.95118 -0.0488154 5.6346 -0.0488157 5.43934 0.146446L4.18198 1.40381C4.08821 1.49757 3.96104 1.55025 3.82843 1.55025H2.05025C1.77411 1.55025 1.55025 1.77411 1.55025 2.05025V3.82843C1.55025 3.96104 1.49757 4.08821 1.40381 4.18198L0.146447 5.43934C-0.0488154 5.6346 -0.0488156 5.95118 0.146446 6.14645L1.40381 7.40381C1.49757 7.49757 1.55025 7.62475 1.55025 7.75736V9.53553C1.55025 9.81168 1.77411 10.0355 2.05025 10.0355H3.82843C3.96104 10.0355 4.08821 10.0882 4.18198 10.182L5.43934 11.4393C5.6346 11.6346 5.95118 11.6346 6.14645 11.4393L7.40381 10.182C7.49757 10.0882 7.62475 10.0355 7.75736 10.0355H9.53553C9.81168 10.0355 10.0355 9.81168 10.0355 9.53553V7.75736C10.0355 7.62475 10.0882 7.49757 10.182 7.40381L11.4393 6.14645C11.6346 5.95118 11.6346 5.6346 11.4393 5.43934L10.182 4.18198C10.0882 4.08821 10.0355 3.96104 10.0355 3.82843V2.05025C10.0355 1.77411 9.81168 1.55025 9.53553 1.55025H7.75736Z" fill="var(--fill-0, #47C2FF)"/>
</svg>
