<svg preserveAspectRatio="none" width="100%" height="100%" overflow="visible" style="display: block;" viewBox="0 0 8.49112 8.49112" fill="none" xmlns="http://www.w3.org/2000/svg">
<path id="Stroke" fill-rule="evenodd" clip-rule="evenodd" d="M5.60279 0.968908L4.90847 0.274587C4.54235 -0.0915287 3.94876 -0.0915295 3.58265 0.274587L2.88833 0.968908H1.90641C1.38864 0.968908 0.968908 1.38864 0.968908 1.90641V2.88833L0.274587 3.58265C-0.0915287 3.94876 -0.0915296 4.54235 0.274587 4.90847L0.968908 5.60279V6.58471C0.968908 7.10248 1.38864 7.52221 1.90641 7.52221H2.88833L3.58265 8.21653C3.94876 8.58265 4.54235 8.58265 4.90847 8.21653L5.60279 7.52221H6.58471C7.10248 7.52221 7.52221 7.10248 7.52221 6.58471V5.60279L8.21653 4.90847C8.58265 4.54235 8.58265 3.94876 8.21653 3.58265L7.52221 2.88833V1.90641C7.52221 1.38864 7.10248 0.968908 6.58471 0.968908H5.60279ZM5.25238 1.50238C5.31098 1.56098 5.39047 1.59391 5.47335 1.59391H6.58471C6.7573 1.59391 6.89721 1.73382 6.89721 1.90641V3.01777C6.89721 3.10065 6.93013 3.18013 6.98874 3.23874L7.77459 4.02459C7.89663 4.14663 7.89663 4.34449 7.77459 4.46653L6.98874 5.25238C6.93013 5.31098 6.89721 5.39047 6.89721 5.47335V6.58471C6.89721 6.7573 6.7573 6.89721 6.58471 6.89721H5.47335C5.39047 6.89721 5.31098 6.93013 5.25238 6.98874L4.46653 7.77459C4.34449 7.89663 4.14663 7.89663 4.02459 7.77459L3.23874 6.98874C3.18013 6.93013 3.10065 6.89721 3.01777 6.89721H1.90641C1.73382 6.89721 1.59391 6.7573 1.59391 6.58471V5.47335C1.59391 5.39047 1.56098 5.31098 1.50238 5.25238L0.716529 4.46653C0.59449 4.34449 0.59449 4.14663 0.716529 4.02459L1.50238 3.23874C1.56098 3.18013 1.59391 3.10065 1.59391 3.01777V1.90641C1.59391 1.73382 1.73382 1.59391 1.90641 1.59391H3.01777C3.10065 1.59391 3.18013 1.56098 3.23874 1.50238L4.02459 0.716529C4.14663 0.59449 4.34449 0.59449 4.46653 0.716529L5.25238 1.50238Z" fill="var(--fill-0, white)"/>
</svg>
