<svg preserveAspectRatio="none" width="100%" height="100%" overflow="visible" style="display: block;" viewBox="0 0 15 13.5" fill="none" xmlns="http://www.w3.org/2000/svg">
<path id="Vector" d="M14.25 0C14.664 0 15 0.336 15 0.75V12.75C15 13.164 14.664 13.5 14.25 13.5H0.75C0.336 13.5 0 13.164 0 12.75V0.75C0 0.336 0.336 0 0.75 0H14.25ZM5.25 3.75C3.594 3.75 2.25 5.094 2.25 6.75C2.25 8.406 3.594 9.75 5.25 9.75C6.075 9.75 6.825 9.4125 7.371 8.871L6.3105 7.8105C6.03975 8.082 5.66475 8.25 5.25 8.25C4.42125 8.25 3.75 7.57875 3.75 6.75C3.75 5.92125 4.42125 5.25 5.25 5.25C5.6625 5.25 6.036 5.415 6.31125 5.69025L7.37175 4.62975C6.82875 4.086 6.07875 3.75 5.25 3.75ZM10.5 3.75C8.844 3.75 7.5 5.094 7.5 6.75C7.5 8.406 8.844 9.75 10.5 9.75C11.328 9.75 12.078 9.414 12.621 8.871L11.5605 7.8105C11.289 8.082 10.914 8.25 10.5 8.25C9.67125 8.25 9 7.57875 9 6.75C9 5.92125 9.67125 5.25 10.5 5.25C10.9147 5.25 11.2898 5.418 11.5613 5.69025L12.6218 4.62975C12.0788 4.086 11.3288 3.75 10.5 3.75Z" fill="var(--fill-0, white)"/>
</svg>
