<svg preserveAspectRatio="none" width="100%" height="100%" overflow="visible" style="display: block;" viewBox="0 0 8.63055 9.94447" fill="none" xmlns="http://www.w3.org/2000/svg">
<path id="Vector" d="M0.564003 0.0511111L8.445 4.64861C8.50148 4.68167 8.54832 4.72894 8.58088 4.78571C8.61343 4.84249 8.63055 4.90679 8.63055 4.97224C8.63055 5.03768 8.61343 5.10198 8.58088 5.15876C8.54832 5.21553 8.50148 5.2628 8.445 5.29586L0.564003 9.89336C0.506904 9.92668 0.442011 9.94431 0.3759 9.94447C0.30979 9.94463 0.244813 9.92731 0.187554 9.89427C0.130295 9.86122 0.0827903 9.81362 0.0498536 9.7563C0.0169168 9.69898 -0.00028092 9.63397 3.47067e-06 9.56786V0.375111C-1.60848e-05 0.309128 0.0173746 0.244309 0.0504193 0.187197C0.0834641 0.130085 0.130993 0.0827031 0.188207 0.0498355C0.245421 0.0169679 0.310294 -0.000221829 0.376277 2.16134e-06C0.442259 0.000226152 0.507014 0.0178558 0.564003 0.0511111Z" fill="var(--fill-0, #5C5C5C)"/>
</svg>
