<svg preserveAspectRatio="none" width="100%" height="100%" overflow="visible" style="display: block;" viewBox="0 0 18.0047 18.0049" fill="none" xmlns="http://www.w3.org/2000/svg">
<path id="Vector" d="M0.121077 10.4694C-0.0403591 9.49809 -0.0403591 8.50676 0.121077 7.53543C1.11288 7.55883 2.00388 7.08363 2.35038 6.24753C2.69688 5.41053 2.40258 4.44393 1.68438 3.76083C2.25715 2.95919 2.95838 2.25765 3.75978 1.68453C4.44378 2.40273 5.41038 2.69703 6.24738 2.35053C7.08438 2.00403 7.55868 1.11213 7.53438 0.121227C8.5063 -0.0404089 9.49825 -0.0404089 10.4702 0.121227C10.4459 1.11303 10.9211 2.00403 11.7572 2.35053C12.5942 2.69703 13.5608 2.40273 14.2439 1.68453C15.0455 2.2573 15.7471 2.95853 16.3202 3.75993C15.602 4.44393 15.3077 5.41053 15.6542 6.24753C16.0007 7.08453 16.8926 7.55883 17.8835 7.53453C18.0451 8.50645 18.0451 9.4984 17.8835 10.4703C16.8917 10.446 16.0007 10.9212 15.6542 11.7573C15.3077 12.5943 15.602 13.5609 16.3202 14.244C15.7474 15.0457 15.0462 15.7472 14.2448 16.3203C13.5608 15.6021 12.5942 15.3078 11.7572 15.6543C10.9202 16.0008 10.4459 16.8927 10.4702 17.8836C9.49825 18.0453 8.5063 18.0453 7.53438 17.8836C7.55868 16.8918 7.08348 16.0008 6.24738 15.6543C5.41038 15.3078 4.44378 15.6021 3.76068 16.3203C2.95904 15.7476 2.2575 15.0463 1.68438 14.2449C2.40258 13.5609 2.69688 12.5943 2.35038 11.7573C2.00388 10.9203 1.11198 10.446 0.121077 10.4703V10.4694ZM9.00228 11.7024C9.71836 11.7024 10.4051 11.418 10.9115 10.9116C11.4178 10.4053 11.7023 9.71851 11.7023 9.00243C11.7023 8.28634 11.4178 7.59959 10.9115 7.09324C10.4051 6.58689 9.71836 6.30243 9.00228 6.30243C8.28619 6.30243 7.59944 6.58689 7.09309 7.09324C6.58674 7.59959 6.30228 8.28634 6.30228 9.00243C6.30228 9.71851 6.58674 10.4053 7.09309 10.9116C7.59944 11.418 8.28619 11.7024 9.00228 11.7024V11.7024Z" fill="var(--fill-0, #335CFF)"/>
</svg>
