<svg preserveAspectRatio="none" width="100%" height="100%" overflow="visible" style="display: block;" viewBox="0 0 342 452" fill="none" xmlns="http://www.w3.org/2000/svg">
<g id="Pattern" clip-path="url(#clip0_202513_994355)">
<g id="Shape">
<path d="M280.121 156.543L389.242 87.462L498.363 156.543L498.363 294.704L389.242 363.785L389.242 225.623L280.121 156.543Z" fill="var(--fill-0, white)" fill-opacity="0.04"/>
<path d="M171 501.946L280.121 432.865L280.121 294.704L389.242 363.785L389.242 501.946L280.121 571.027L171 501.946Z" fill="var(--fill-0, white)" fill-opacity="0.04"/>
<path d="M-47.2422 363.785L-47.2422 501.946L61.8789 571.027L171 501.946L171 363.785L61.8789 432.865L-47.2422 363.785Z" fill="var(--fill-0, white)" fill-opacity="0.04"/>
<path d="M-47.2422 87.462L-47.2422 225.623L61.8789 294.704L-47.2422 363.785L-156.363 294.704L-156.363 156.543L-47.2422 87.462Z" fill="var(--fill-0, white)" fill-opacity="0.04"/>
<path d="M171 -50.6993L171 87.462L280.121 18.3814L389.242 87.462L389.242 -50.6993L280.121 -119.78L171 -50.6993Z" fill="var(--fill-0, white)" fill-opacity="0.04"/>
<path d="M171 -50.6993L61.8789 -119.78L-47.2422 -50.6993L-47.2422 87.462L61.8789 156.543L61.8789 18.3814L171 -50.6993Z" fill="var(--fill-0, white)" fill-opacity="0.04"/>
<path d="M389.242 87.462L280.121 156.543L389.242 225.623L389.242 363.785M389.242 87.462L498.363 156.543L498.363 294.704L389.242 363.785M389.242 87.462L280.121 18.3814L171 87.462L171 -50.6993M389.242 87.462L389.242 -50.6993L280.121 -119.78L171 -50.6993M389.242 363.785L280.121 294.704L280.121 432.865L171 501.946M389.242 363.785L389.242 501.946L280.121 571.027L171 501.946M171 501.946L61.8789 571.027L-47.2422 501.946L-47.2422 363.785M171 501.946L171 363.785L61.8789 432.865L-47.2422 363.785M-47.2422 363.785L61.8789 294.704L-47.2422 225.623L-47.2422 87.462M-47.2422 363.785L-156.363 294.704L-156.363 156.543L-47.2422 87.462M-47.2422 87.462L-47.2422 -50.6993L61.8789 -119.78L171 -50.6993M-47.2422 87.462L61.8789 156.543L61.8789 18.3814L171 -50.6993" stroke="var(--stroke-0, white)" stroke-width="2"/>
</g>
</g>
<defs>
<clipPath id="clip0_202513_994355">
<rect width="342" height="452" fill="white"/>
</clipPath>
</defs>
</svg>
