<svg preserveAspectRatio="none" width="100%" height="100%" overflow="visible" style="display: block;" viewBox="0 0 20 20" fill="none" xmlns="http://www.w3.org/2000/svg">
<g id="download">
<path id="Download" d="M10 16.6667C13.6471 16.6667 16.6667 13.6405 16.6667 10C16.6667 6.35294 13.6405 3.33333 9.99346 3.33333C6.35294 3.33333 3.33333 6.35294 3.33333 10C3.33333 13.6405 6.35948 16.6667 10 16.6667ZM10 15.5556C6.91503 15.5556 4.45098 13.085 4.45098 10C4.45098 6.91503 6.9085 4.44444 9.99346 4.44444C13.0784 4.44444 15.549 6.91503 15.5556 10C15.5621 13.085 13.085 15.5556 10 15.5556ZM10 6.6732C9.71895 6.6732 9.5098 6.87582 9.5098 7.1634V10.4314L9.56209 11.8105L8.9085 11.0261L8.13072 10.2418C8.03922 10.1569 7.92157 10.098 7.78431 10.098C7.51634 10.098 7.31373 10.3072 7.31373 10.5686C7.31373 10.7059 7.35294 10.8235 7.43791 10.9085L9.62092 13.085C9.75163 13.2157 9.86274 13.268 10 13.268C10.1438 13.268 10.2614 13.2091 10.3856 13.085L12.5621 10.9085C12.6471 10.8235 12.6993 10.7059 12.6993 10.5686C12.6993 10.3072 12.4902 10.098 12.2222 10.098C12.0784 10.098 11.9608 10.1503 11.8758 10.2418L11.1046 11.0261L10.4379 11.817L10.4902 10.4314V7.1634C10.4902 6.87582 10.2876 6.6732 10 6.6732Z" fill="var(--fill-0, #A4A4A4)"/>
</g>
</svg>
