<svg preserveAspectRatio="none" width="100%" height="100%" overflow="visible" style="display: block;" viewBox="0 0 15 15" fill="none" xmlns="http://www.w3.org/2000/svg">
<path id="Vector" d="M7.5 0C7.69891 0 7.88968 0.0790176 8.03033 0.21967C8.17098 0.360322 8.25 0.551088 8.25 0.75V3C8.25 3.19891 8.17098 3.38968 8.03033 3.53033C7.88968 3.67098 7.69891 3.75 7.5 3.75C7.30109 3.75 7.11032 3.67098 6.96967 3.53033C6.82902 3.38968 6.75 3.19891 6.75 3V0.75C6.75 0.551088 6.82902 0.360322 6.96967 0.21967C7.11032 0.0790176 7.30109 0 7.5 0V0ZM7.5 11.25C7.69891 11.25 7.88968 11.329 8.03033 11.4697C8.17098 11.6103 8.25 11.8011 8.25 12V14.25C8.25 14.4489 8.17098 14.6397 8.03033 14.7803C7.88968 14.921 7.69891 15 7.5 15C7.30109 15 7.11032 14.921 6.96967 14.7803C6.82902 14.6397 6.75 14.4489 6.75 14.25V12C6.75 11.8011 6.82902 11.6103 6.96967 11.4697C7.11032 11.329 7.30109 11.25 7.5 11.25V11.25ZM15 7.5C15 7.69891 14.921 7.88968 14.7803 8.03033C14.6397 8.17098 14.4489 8.25 14.25 8.25H12C11.8011 8.25 11.6103 8.17098 11.4697 8.03033C11.329 7.88968 11.25 7.69891 11.25 7.5C11.25 7.30109 11.329 7.11032 11.4697 6.96967C11.6103 6.82902 11.8011 6.75 12 6.75H14.25C14.4489 6.75 14.6397 6.82902 14.7803 6.96967C14.921 7.11032 15 7.30109 15 7.5ZM3.75 7.5C3.75 7.69891 3.67098 7.88968 3.53033 8.03033C3.38968 8.17098 3.19891 8.25 3 8.25H0.75C0.551088 8.25 0.360322 8.17098 0.21967 8.03033C0.0790176 7.88968 0 7.69891 0 7.5C0 7.30109 0.0790176 7.11032 0.21967 6.96967C0.360322 6.82902 0.551088 6.75 0.75 6.75H3C3.19891 6.75 3.38968 6.82902 3.53033 6.96967C3.67098 7.11032 3.75 7.30109 3.75 7.5ZM12.8032 12.8032C12.6626 12.9439 12.4719 13.0228 12.273 13.0228C12.0741 13.0228 11.8834 12.9439 11.7427 12.8032L10.152 11.2125C10.0154 11.071 9.93979 10.8816 9.94149 10.6849C9.9432 10.4883 10.0221 10.3002 10.1611 10.1611C10.3002 10.0221 10.4883 9.9432 10.6849 9.94149C10.8816 9.93979 11.071 10.0154 11.2125 10.152L12.8032 11.742C12.873 11.8117 12.9283 11.8944 12.966 11.9854C13.0038 12.0765 13.0232 12.1741 13.0232 12.2726C13.0232 12.3712 13.0038 12.4688 12.966 12.5598C12.9283 12.6509 12.873 12.7336 12.8032 12.8032V12.8032ZM4.848 4.848C4.70735 4.9886 4.51662 5.06759 4.31775 5.06759C4.11888 5.06759 3.92815 4.9886 3.7875 4.848L2.1975 3.258C2.05677 3.11737 1.97767 2.92659 1.9776 2.72764C1.97753 2.52869 2.05649 2.33786 2.19713 2.19713C2.33776 2.05639 2.52853 1.97729 2.72748 1.97722C2.92644 1.97715 3.11727 2.05612 3.258 2.19675L4.848 3.7875C4.9886 3.92815 5.06759 4.11888 5.06759 4.31775C5.06759 4.51662 4.9886 4.70735 4.848 4.848V4.848ZM2.1975 12.8032C2.0569 12.6626 1.97791 12.4719 1.97791 12.273C1.97791 12.0741 2.0569 11.8834 2.1975 11.7427L3.78825 10.152C3.85744 10.0804 3.94019 10.0232 4.0317 9.98392C4.1232 9.94462 4.22161 9.92393 4.3212 9.92306C4.42078 9.9222 4.51954 9.94117 4.61172 9.97888C4.70389 10.0166 4.78763 10.0723 4.85805 10.1427C4.92847 10.2131 4.98416 10.2969 5.02187 10.389C5.05958 10.4812 5.07855 10.58 5.07769 10.6796C5.07682 10.7791 5.05613 10.8776 5.01683 10.9691C4.97752 11.0606 4.92038 11.1433 4.84875 11.2125L3.25875 12.8032C3.1891 12.873 3.10638 12.9283 3.01533 12.966C2.92428 13.0038 2.82669 13.0232 2.72812 13.0232C2.62956 13.0232 2.53197 13.0038 2.44092 12.966C2.34987 12.9283 2.26715 12.873 2.1975 12.8032V12.8032ZM10.152 4.848C10.0114 4.70735 9.93241 4.51662 9.93241 4.31775C9.93241 4.11888 10.0114 3.92815 10.152 3.7875L11.742 2.19675C11.8826 2.05602 12.0734 1.97692 12.2724 1.97685C12.4713 1.97678 12.6621 2.05574 12.8029 2.19638C12.9436 2.33701 13.0227 2.52778 13.0228 2.72673C13.0228 2.92569 12.9439 3.11652 12.8032 3.25725L11.2125 4.848C11.0719 4.9886 10.8811 5.06759 10.6823 5.06759C10.4834 5.06759 10.2926 4.9886 10.152 4.848V4.848Z" fill="var(--fill-0, #D1D1D1)"/>
</svg>
