<svg preserveAspectRatio="none" width="100%" height="100%" overflow="visible" style="display: block;" viewBox="0 0 20 20" fill="none" xmlns="http://www.w3.org/2000/svg">
<g id="copy">
<path id="Pages" d="M5.31191 13.72H6.38941V14.6937C6.38941 16.0048 7.04474 16.6667 8.36799 16.6667H14.6944C16.005 16.6667 16.6667 16.0048 16.6667 14.6937V8.25298C16.6667 6.94193 16.005 6.28003 14.6944 6.28003H13.6106V5.30628C13.6106 3.99523 12.949 3.33333 11.6383 3.33333H5.31191C3.98866 3.33333 3.33333 3.99523 3.33333 5.30628V11.747C3.33333 13.0581 3.98866 13.72 5.31191 13.72ZM5.32451 12.6953C4.69439 12.6953 4.34783 12.3516 4.34783 11.6897V5.36356C4.34783 4.70167 4.69439 4.358 5.32451 4.358H11.6194C12.2432 4.358 12.5961 4.70167 12.5961 5.36356V6.28003H8.36799C7.04474 6.28003 6.38941 6.93556 6.38941 8.25298V12.6953H5.32451ZM8.38059 15.642C7.75677 15.642 7.40391 15.2983 7.40391 14.6364V8.31026C7.40391 7.64837 7.75677 7.30469 8.38059 7.30469H14.6755C15.2993 7.30469 15.6522 7.64837 15.6522 8.31026V14.6364C15.6522 15.2983 15.2993 15.642 14.6755 15.642H8.38059Z" fill="var(--fill-0, #A4A4A4)"/>
</g>
</svg>
