<svg preserveAspectRatio="none" width="100%" height="100%" overflow="visible" style="display: block;" viewBox="0 0 441 584" fill="none" xmlns="http://www.w3.org/2000/svg">
<g id="Pattern" clip-path="url(#clip0_202513_994370)">
<g id="Shape">
<path d="M361.209 202.259L501.918 113.004L642.626 202.259L642.626 380.768L501.917 470.023L501.918 291.513L361.209 202.259Z" fill="var(--fill-0, white)" fill-opacity="0.04"/>
<path d="M220.5 648.532L361.209 559.277L361.209 380.768L501.917 470.023L501.917 648.532L361.209 737.787L220.5 648.532Z" fill="var(--fill-0, white)" fill-opacity="0.04"/>
<path d="M-60.9176 470.023L-60.9176 648.532L79.7912 737.787L220.5 648.532L220.5 470.023L79.7912 559.277L-60.9176 470.023Z" fill="var(--fill-0, white)" fill-opacity="0.04"/>
<path d="M-60.9175 113.004L-60.9175 291.513L79.7912 380.768L-60.9176 470.023L-201.626 380.768L-201.626 202.259L-60.9175 113.004Z" fill="var(--fill-0, white)" fill-opacity="0.04"/>
<path d="M220.5 -65.5053L220.5 113.004L361.209 23.7494L501.918 113.004L501.918 -65.5053L361.209 -154.76L220.5 -65.5053Z" fill="var(--fill-0, white)" fill-opacity="0.04"/>
<path d="M220.5 -65.5053L79.7912 -154.76L-60.9175 -65.5053L-60.9175 113.004L79.7912 202.259L79.7912 23.7494L220.5 -65.5053Z" fill="var(--fill-0, white)" fill-opacity="0.04"/>
<path d="M501.918 113.004L361.209 202.259L501.918 291.513L501.917 470.023M501.918 113.004L642.626 202.259L642.626 380.768L501.917 470.023M501.918 113.004L361.209 23.7494L220.5 113.004L220.5 -65.5053M501.918 113.004L501.918 -65.5053L361.209 -154.76L220.5 -65.5053M501.917 470.023L361.209 380.768L361.209 559.277L220.5 648.532M501.917 470.023L501.917 648.532L361.209 737.787L220.5 648.532M220.5 648.532L79.7912 737.787L-60.9176 648.532L-60.9176 470.023M220.5 648.532L220.5 470.023L79.7912 559.277L-60.9176 470.023M-60.9176 470.023L79.7912 380.768L-60.9175 291.513L-60.9175 113.004M-60.9176 470.023L-201.626 380.768L-201.626 202.259L-60.9175 113.004M-60.9175 113.004L-60.9175 -65.5053L79.7912 -154.76L220.5 -65.5053M-60.9175 113.004L79.7912 202.259L79.7912 23.7494L220.5 -65.5053" stroke="var(--stroke-0, white)" stroke-width="2"/>
</g>
</g>
<defs>
<clipPath id="clip0_202513_994370">
<rect width="441" height="584" fill="white"/>
</clipPath>
</defs>
</svg>
