<svg preserveAspectRatio="none" width="100%" height="100%" overflow="visible" style="display: block;" viewBox="0 0 16.2 18" fill="none" xmlns="http://www.w3.org/2000/svg">
<path id="Vector" d="M11.7 0L16.2 4.5V17.1072C16.1998 17.3441 16.1055 17.5712 15.9379 17.7386C15.7703 17.906 15.5432 18 15.3063 18H0.8937C0.65734 17.9984 0.431116 17.9038 0.263896 17.7367C0.0966761 17.5697 0.00188518 17.3436 0 17.1072V0.8928C0 0.3996 0.4005 0 0.8937 0H11.7ZM9.4761 11.2014L11.4651 13.1904L12.7386 11.9187L10.7496 9.9297C11.1929 9.17467 11.3459 8.28404 11.1802 7.42435C11.0144 6.56465 10.5412 5.79477 9.84905 5.25864C9.15686 4.72252 8.2931 4.45688 7.41928 4.51138C6.54545 4.56589 5.72139 4.93682 5.1012 5.5548C4.48113 6.17435 4.1084 6.99886 4.05294 7.87365C3.99747 8.74844 4.26308 9.61341 4.79993 10.3063C5.33679 10.9992 6.10801 11.4725 6.96892 11.6373C7.82984 11.802 8.72131 11.6471 9.4761 11.2014V11.2014ZM8.9199 9.3726C8.75386 9.54452 8.55524 9.68165 8.33563 9.77598C8.11602 9.87032 7.87983 9.91997 7.64082 9.92205C7.40182 9.92413 7.1648 9.87858 6.94358 9.78808C6.72237 9.69757 6.5214 9.56392 6.35239 9.39491C6.18338 9.2259 6.04973 9.02493 5.95922 8.80372C5.86872 8.5825 5.82317 8.34548 5.82525 8.10648C5.82733 7.86747 5.87698 7.63128 5.97132 7.41167C6.06565 7.19206 6.20278 6.99344 6.3747 6.8274C6.71418 6.49952 7.16887 6.31809 7.64082 6.32219C8.11278 6.32629 8.56424 6.51559 8.89797 6.84933C9.23171 7.18306 9.42101 7.63452 9.42511 8.10648C9.42921 8.57843 9.24779 9.03312 8.9199 9.3726Z" fill="var(--fill-0, #335CFF)"/>
</svg>
