<svg preserveAspectRatio="none" width="100%" height="100%" overflow="visible" style="display: block;" viewBox="0 0 28 28" fill="none" xmlns="http://www.w3.org/2000/svg">
<path id="Vector" d="M28 12.444H19.812L26.904 8.35L25.346 5.65L18.256 9.746L22.348 2.654L19.65 1.096L15.56 8.186V0H12.44V8.188L8.348 1.096L5.652 2.654L9.744 9.744L2.654 5.652L1.096 8.348L8.188 12.442H0V15.556H8.186L1.096 19.65L2.654 22.35L9.744 18.256L5.65 25.346L8.35 26.904L12.442 19.812V28H15.556V19.812L19.65 26.904L22.348 25.346L18.254 18.254L25.344 22.348L26.902 19.65L19.812 15.558H27.998L28 12.444ZM14 18.236C12.8723 18.236 11.7908 17.788 10.9934 16.9906C10.196 16.1932 9.748 15.1117 9.748 13.984C9.748 12.8563 10.196 11.7748 10.9934 10.9774C11.7908 10.18 12.8723 9.732 14 9.732C15.1277 9.732 16.2092 10.18 17.0066 10.9774C17.804 11.7748 18.252 12.8563 18.252 13.984C18.252 15.1117 17.804 16.1932 17.0066 16.9906C16.2092 17.788 15.1277 18.236 14 18.236Z" fill="var(--fill-0, #625DF5)"/>
</svg>
