<svg preserveAspectRatio="none" width="100%" height="100%" overflow="visible" style="display: block;" viewBox="0 0 27.1716 27.1716" fill="none" xmlns="http://www.w3.org/2000/svg">
<path id="Stroke" fill-rule="evenodd" clip-rule="evenodd" d="M17.9289 3.10051L15.7071 0.87868C14.5355 -0.292892 12.636 -0.292895 11.4645 0.878679L9.24264 3.10051H6.10051C4.44365 3.10051 3.10051 4.44365 3.10051 6.1005V9.24264L0.87868 11.4645C-0.292892 12.636 -0.292895 14.5355 0.878679 15.7071L3.10051 17.9289V21.0711C3.10051 22.7279 4.44365 24.0711 6.1005 24.0711H9.24264L11.4645 26.2929C12.636 27.4645 14.5355 27.4645 15.7071 26.2929L17.9289 24.0711H21.0711C22.7279 24.0711 24.0711 22.7279 24.0711 21.0711V17.9289L26.2929 15.7071C27.4645 14.5355 27.4645 12.636 26.2929 11.4645L24.0711 9.24264V6.10051C24.0711 4.44365 22.7279 3.10051 21.0711 3.10051H17.9289ZM16.8076 4.80761C16.9951 4.99515 17.2495 5.1005 17.5147 5.1005H21.0711C21.6234 5.1005 22.0711 5.54822 22.0711 6.10051V9.65685C22.0711 9.92207 22.1764 10.1764 22.364 10.364L24.8787 12.8787C25.2692 13.2692 25.2692 13.9024 24.8787 14.2929L22.364 16.8076C22.1764 16.9951 22.0711 17.2495 22.0711 17.5147V21.0711C22.0711 21.6234 21.6234 22.0711 21.0711 22.0711H17.5147C17.2495 22.0711 16.9951 22.1764 16.8076 22.364L14.2929 24.8787C13.9024 25.2692 13.2692 25.2692 12.8787 24.8787L10.364 22.364C10.1764 22.1764 9.92207 22.0711 9.65685 22.0711H6.1005C5.54822 22.0711 5.10051 21.6234 5.10051 21.0711V17.5147C5.10051 17.2495 4.99515 16.9951 4.80761 16.8076L2.29289 14.2929C1.90237 13.9024 1.90237 13.2692 2.29289 12.8787L4.80761 10.364C4.99515 10.1764 5.10051 9.92207 5.10051 9.65685V6.1005C5.10051 5.54822 5.54822 5.1005 6.10051 5.1005H9.65685C9.92207 5.1005 10.1764 4.99515 10.364 4.80761L12.8787 2.29289C13.2692 1.90237 13.9024 1.90237 14.2929 2.29289L16.8076 4.80761Z" fill="var(--fill-0, white)"/>
</svg>
