<svg preserveAspectRatio="none" width="100%" height="100%" overflow="visible" style="display: block;" viewBox="0 0 18 16.2" fill="none" xmlns="http://www.w3.org/2000/svg">
<path id="Vector" d="M0.9 0H17.1C17.3387 0 17.5676 0.0948211 17.7364 0.263604C17.9052 0.432387 18 0.661305 18 0.9V15.3C18 15.5387 17.9052 15.7676 17.7364 15.9364C17.5676 16.1052 17.3387 16.2 17.1 16.2H0.9C0.661305 16.2 0.432387 16.1052 0.263604 15.9364C0.0948211 15.7676 0 15.5387 0 15.3V0.9C0 0.661305 0.0948211 0.432387 0.263604 0.263604C0.432387 0.0948211 0.661305 0 0.9 0V0ZM13.41 9H8.1V3.69C7.00978 3.91583 6.04193 4.53764 5.38336 5.43534C4.72479 6.33303 4.42223 7.44292 4.53412 8.55064C4.64601 9.65837 5.16441 10.6853 5.9892 11.4332C6.81399 12.1811 7.88665 12.5968 9 12.6C10.0373 12.5999 11.0427 12.2415 11.8463 11.5856C12.6498 10.9296 13.2022 10.0163 13.41 9ZM13.41 7.2C13.233 6.33549 12.806 5.542 12.182 4.91801C11.558 4.29403 10.7645 3.86703 9.9 3.69V7.2H13.41Z" fill="var(--fill-0, #335CFF)"/>
</svg>
