<svg preserveAspectRatio="none" width="100%" height="100%" overflow="visible" style="display: block;" viewBox="0 0 11.9 12.25" fill="none" xmlns="http://www.w3.org/2000/svg">
<g id="G2_Crowd_logo 1" clip-path="url(#clip0_202514_1150203)">
<path id="path8" d="M6.16583 12.1729C3.47618 12.1656 1.13263 10.4636 0.368142 7.92501C-0.270346 5.79784 0.143601 3.85352 1.5797 2.15438C2.46251 1.11021 3.60097 0.470196 4.93933 0.196309C5.68799 0.0433536 6.45913 0.0370342 7.21019 0.1777C7.29419 0.193073 7.29499 0.215728 7.26228 0.283694C6.89289 1.05397 6.52525 1.82533 6.15937 2.59777C6.1503 2.62193 6.13348 2.64238 6.11155 2.65593C6.08962 2.66947 6.06383 2.67534 6.03821 2.67262C5.26866 2.69233 4.5278 2.96929 3.93351 3.45943C3.33921 3.94957 2.92562 4.62473 2.75854 5.3775C2.38982 7.02284 3.27829 8.72482 4.84604 9.32802C6.09031 9.80661 7.24815 9.61607 8.30139 8.79805C8.3551 8.75759 8.37732 8.7495 8.41568 8.81625C8.81953 9.52423 9.22688 10.2309 9.63773 10.9361C9.67368 10.998 9.66075 11.026 9.60744 11.0632C8.81412 11.6254 7.89642 11.9864 6.93314 12.115C6.67858 12.1479 6.42244 12.1672 6.16583 12.1729Z" fill="var(--fill-0, #EF492D)"/>
<path id="path10" d="M10.3441 10.4213C10.311 10.4035 10.3017 10.3671 10.2847 10.3375C9.82539 9.5419 9.36769 8.74545 8.91161 7.9482C8.8961 7.91554 8.8708 7.88854 8.83923 7.87099C8.80766 7.85344 8.77141 7.8462 8.73553 7.8503C7.82364 7.85313 6.91214 7.8503 6.00025 7.8503H5.88677C5.88595 7.81521 5.89868 7.78115 5.92231 7.75523C6.38539 6.94935 6.84874 6.14347 7.31236 5.33758C7.32467 5.31093 7.34499 5.2888 7.37048 5.27429C7.39598 5.25978 7.42536 5.25362 7.45452 5.25667C8.38795 5.2591 9.32112 5.2591 10.254 5.25667C10.283 5.25364 10.3122 5.25982 10.3375 5.27434C10.3628 5.28886 10.3829 5.31099 10.395 5.33758C10.8605 6.15021 11.3281 6.96175 11.7979 7.77222C11.8136 7.79299 11.8225 7.81815 11.8232 7.84419C11.8239 7.87023 11.8165 7.89584 11.802 7.91746C11.33 8.73386 10.8598 9.54945 10.3913 10.3642C10.3788 10.3849 10.3731 10.4132 10.3441 10.4213Z" fill="var(--fill-0, #EF492D)"/>
<path id="path12" d="M8.37812 1.86322C8.21093 1.69574 8.05504 1.53553 7.8935 1.37775C7.84342 1.32921 7.87856 1.2932 7.89996 1.25638C8.08482 0.933942 8.38579 0.694539 8.74118 0.587244C8.95655 0.516047 9.18441 0.490785 9.41011 0.51308C9.6358 0.535376 9.85434 0.604737 10.0517 0.716703C10.7786 1.11034 10.7136 2.02343 10.294 2.43608C10.1349 2.58953 9.95472 2.71936 9.75889 2.82162C9.55696 2.92924 9.35504 3.03078 9.15715 3.14527C8.99278 3.23953 8.86476 3.3698 8.8054 3.55833C8.78117 3.63438 8.7957 3.65421 8.87688 3.6534C9.41077 3.65016 9.94506 3.6534 10.4794 3.65016C10.5601 3.65016 10.5904 3.66553 10.5872 3.75373C10.5799 3.94266 10.5827 4.13199 10.5872 4.32011C10.5872 4.37999 10.5706 4.40102 10.5092 4.40102C9.65066 4.39941 8.79234 4.39941 7.93429 4.40102C7.89391 4.40102 7.85635 4.40102 7.85594 4.34236C7.85594 3.74685 7.96579 3.1922 8.43103 2.76741C8.65263 2.57082 8.90142 2.40731 9.16967 2.28194C9.31667 2.20993 9.46529 2.14116 9.59371 2.03678C9.70598 1.94535 9.78352 1.8345 9.7916 1.68481C9.80372 1.45057 9.61875 1.27661 9.33929 1.25841C8.93746 1.22968 8.64749 1.41093 8.44476 1.74752C8.42457 1.78069 8.40599 1.81468 8.37812 1.86322Z" fill="var(--fill-0, #EF492D)"/>
<path id="path14" d="M10.4256 11.2688V11.0746H10.3562V11.0342H10.5424V11.0746H10.4721V11.2688H10.4256ZM10.5722 11.2688V11.035H10.6429L10.6833 11.1945L10.7237 11.035H10.7948V11.2688H10.7548V11.0847L10.7083 11.2688H10.6627L10.6167 11.0847V11.2688H10.5722Z" fill="var(--fill-0, #EF492D)"/>
</g>
<defs>
<clipPath id="clip0_202514_1150203">
<rect width="11.9" height="12.25" fill="white"/>
</clipPath>
</defs>
</svg>
