<svg preserveAspectRatio="none" width="100%" height="100%" overflow="visible" style="display: block;" viewBox="0 0 188.5 86" fill="none" xmlns="http://www.w3.org/2000/svg">
<g id="Chart">
<path id="Chart_2" d="M0.75016 50L5.92277 47.3705C6.19229 47.2335 6.50933 47.2258 6.78519 47.3495L11.884 49.6365C12.3462 49.8439 12.8904 49.6728 13.1509 49.2383L24.2055 30.799C24.4556 30.3817 24.9699 30.2051 25.4237 30.3805L35.7384 34.3675C36.0345 34.4819 36.3674 34.449 36.6353 34.2787L40.412 31.8789C40.5915 31.7648 40.73 31.5965 40.8073 31.3983L46.6209 16.4974C46.8398 15.9362 47.5017 15.6945 48.0308 15.9827L54.9065 19.7276C55.1244 19.8463 55.3788 19.8797 55.62 19.8213L64.7978 17.5997C65.1255 17.5203 65.4712 17.6115 65.7172 17.8423L78.2327 29.5822C78.5475 29.8775 79.0162 29.9375 79.3952 29.731L84.5517 26.9225C84.6708 26.8576 84.7754 26.7692 84.8593 26.6627L90.4666 19.5365C90.9223 18.9573 91.8266 19.0533 92.1506 19.7151L93.8824 23.2522C94.1657 23.8309 94.9142 23.9945 95.4132 23.5869L96.8689 22.3976C97.2002 22.127 97.6669 22.097 98.03 22.323L104.524 26.365C104.947 26.6284 105.499 26.54 105.819 26.1579L115.839 14.1865C116.305 13.6299 117.19 13.7395 117.506 14.3929L130.908 42.0938C131.165 42.6261 131.826 42.8199 132.331 42.5109L136.659 39.8588C137.067 39.6089 137.594 39.6829 137.918 40.0352L140.097 42.4089C140.449 42.7925 141.037 42.8417 141.448 42.5219L158.579 29.1918C158.848 28.9832 159.203 28.925 159.524 29.0373L168.805 32.2869C169.199 32.4249 169.638 32.3033 169.905 31.982L183.059 16.1447C183.39 15.7457 183.971 15.6663 184.398 15.9618L187.75 18.2857" stroke="var(--stroke-0, #335CFF)" stroke-width="1.5" stroke-linecap="round"/>
<path id="Chart_3" opacity="0.48" d="M5.89677 47.2841L1.29629 49.6274C0.96117 49.7981 0.75016 50.1424 0.75016 50.5184V85C0.75016 85.5523 1.19788 86 1.75017 86H185.917C186.464 86 186.91 85.56 186.916 85.0126L187.744 19.5953C187.748 19.2738 187.597 18.97 187.339 18.7788L183.578 15.9962C183.151 15.6804 182.552 15.7532 182.213 16.1619L169.142 31.9308C168.875 32.2529 168.435 32.3747 168.041 32.2363L158.809 28.9974C158.488 28.8848 158.131 28.9432 157.863 29.1524L140.815 42.4433C140.404 42.7639 139.815 42.7147 139.463 42.3302L137.3 39.9695C136.977 39.6163 136.448 39.5422 136.04 39.7928L131.74 42.4323C131.236 42.7421 130.574 42.5481 130.317 42.0149L116.981 14.3961C116.665 13.7417 115.779 13.6321 115.313 14.1898L105.346 26.1208C105.026 26.5038 104.473 26.5923 104.05 26.3282L97.5935 22.3015C97.2299 22.0748 96.7624 22.1048 96.4308 22.3762L94.9902 23.5555C94.4911 23.964 93.7415 23.8002 93.4583 23.2207L91.7404 19.7049C91.4166 19.0422 90.5111 18.9462 90.0555 19.5264L84.4792 26.6272C84.3954 26.7339 84.2908 26.8224 84.1717 26.8874L79.0431 29.6863C78.6637 29.8933 78.1942 29.8332 77.8792 29.5371L65.4253 17.8319C65.1792 17.6006 64.833 17.5091 64.5047 17.5887L55.3741 19.8034C55.1325 19.862 54.8776 19.8284 54.6594 19.7093L47.8224 15.9781C47.2931 15.6892 46.6303 15.9311 46.4115 16.4931L40.6263 31.3506C40.5492 31.5487 40.4109 31.7171 40.2315 31.8313L36.4754 34.2228C36.2072 34.3936 35.8737 34.4266 35.5772 34.3118L25.3166 30.3379C24.8624 30.1619 24.3474 30.3389 24.0973 30.7569L13.0969 49.1422C12.8365 49.5775 12.2915 49.7488 11.8289 49.5409L6.76057 47.263C6.48431 47.1389 6.16666 47.1466 5.89677 47.2841Z" fill="var(--fill-0, #476CFF)" fill-opacity="0.1"/>
<line id="Divider" x1="187.5" y1="3.27835e-08" x2="187.5" y2="86" stroke="var(--stroke-0, #335CFF)" stroke-width="1.5"/>
</g>
</svg>
