<svg preserveAspectRatio="none" width="100%" height="100%" overflow="visible" style="display: block;" viewBox="0 0 13.5858 13.5858" fill="none" xmlns="http://www.w3.org/2000/svg">
<path id="Stroke" fill-rule="evenodd" clip-rule="evenodd" d="M8.96447 1.55025L7.85355 0.43934C7.26777 -0.146446 6.31802 -0.146447 5.73223 0.43934L4.62132 1.55025H3.05025C2.22183 1.55025 1.55025 2.22182 1.55025 3.05025V4.62132L0.43934 5.73223C-0.146446 6.31802 -0.146447 7.26777 0.43934 7.85355L1.55025 8.96447V10.5355C1.55025 11.364 2.22182 12.0355 3.05025 12.0355H4.62132L5.73223 13.1464C6.31802 13.7322 7.26777 13.7322 7.85355 13.1464L8.96447 12.0355H10.5355C11.364 12.0355 12.0355 11.364 12.0355 10.5355V8.96447L13.1464 7.85355C13.7322 7.26777 13.7322 6.31802 13.1464 5.73223L12.0355 4.62132V3.05025C12.0355 2.22183 11.364 1.55025 10.5355 1.55025H8.96447ZM8.40381 2.40381C8.49757 2.49757 8.62475 2.55025 8.75736 2.55025H10.5355C10.8117 2.55025 11.0355 2.77411 11.0355 3.05025V4.82843C11.0355 4.96104 11.0882 5.08821 11.182 5.18198L12.4393 6.43934C12.6346 6.6346 12.6346 6.95118 12.4393 7.14645L11.182 8.40381C11.0882 8.49757 11.0355 8.62475 11.0355 8.75736V10.5355C11.0355 10.8117 10.8117 11.0355 10.5355 11.0355H8.75736C8.62475 11.0355 8.49757 11.0882 8.40381 11.182L7.14645 12.4393C6.95118 12.6346 6.6346 12.6346 6.43934 12.4393L5.18198 11.182C5.08821 11.0882 4.96104 11.0355 4.82843 11.0355H3.05025C2.77411 11.0355 2.55025 10.8117 2.55025 10.5355V8.75736C2.55025 8.62475 2.49757 8.49757 2.40381 8.40381L1.14645 7.14645C0.951184 6.95118 0.951185 6.6346 1.14645 6.43934L2.40381 5.18198C2.49757 5.08821 2.55025 4.96104 2.55025 4.82843V3.05025C2.55025 2.77411 2.77411 2.55025 3.05025 2.55025H4.82843C4.96104 2.55025 5.08821 2.49757 5.18198 2.40381L6.43934 1.14645C6.6346 0.951184 6.95118 0.951185 7.14645 1.14645L8.40381 2.40381Z" fill="var(--fill-0, white)"/>
</svg>
